<svg xmlns="http://www.w3.org/2000/svg" width="70.884" height="84.008" viewBox="0 0 70.884 84.008" fill="none">
  <path d="M 70.884 73.344 C 70.884 72.991 70.744 72.671 70.513 72.437 L 70.415 72.339 L 52.199 54.123 C 51.966 53.884 51.643 53.737 51.287 53.737 C 51.047 53.737 50.82 53.803 50.628 53.92 C 48.621 55.095 46.095 55.58 43.603 55.58 C 36.117 55.58 30.028 49.491 30.028 42.005 C 30.028 34.519 36.117 28.43 43.603 28.43 C 46.481 28.43 49.321 29.196 51.562 30.624 L 51.565 30.624 C 51.756 30.737 51.978 30.806 52.217 30.806 C 52.609 30.806 52.965 30.63 53.199 30.348 L 55.891 26.901 L 55.888 26.898 L 66.13 13.79 L 66.133 13.793 L 68.94 10.203 C 69.125 9.978 69.239 9.691 69.239 9.377 C 69.239 8.964 69.044 8.599 68.745 8.363 L 68.748 8.36 C 61.819 3.112 52.807 0 43.376 0 C 29.244 0 19.146 4.718 11.463 12.576 C 4.192 20.017 0 29.543 0 41.275 C 0 54.739 4.377 63.671 11.555 71.273 C 18.946 79.104 30.115 84.008 43.597 84.008 C 53.767 84.008 63.087 80.39 70.355 74.376 C 70.678 74.146 70.884 73.769 70.884 73.344 Z M 55.918 76.04 C 52.041 77.425 47.831 78.11 43.603 78.11 C 33.96 78.11 23.356 74.259 16.537 67.441 C 9.718 60.622 6.065 52.047 6.065 41.278 C 6.065 31.635 9.667 22.946 16.486 16.127 C 23.305 9.308 33.421 5.9 43.064 5.9 C 49.423 5.9 56.068 7.537 61.445 10.604 L 50.993 23.981 C 48.713 23.045 46.218 22.53 43.603 22.53 C 32.847 22.53 24.128 31.249 24.128 42.005 C 24.128 52.762 32.847 61.48 43.603 61.48 C 46.924 61.48 48.528 61.091 50.251 60.323 L 62.638 72.71 C 60.984 74.035 58.303 75.19 55.918 76.04 Z" fill="currentColor" fill-rule="nonzero"></path>
</svg>